<?xml version="1.0" encoding="UTF-8"?>
<svg id="Layer_1" xmlns="http://www.w3.org/2000/svg" version="1.1" viewBox="27.54 27.54 410.33 85">
  <g>
    <path fill="#101828" d="M163.29,64.78c2.13-.94,3.79-2.28,4.97-3.99,1.19-1.72,1.78-3.71,1.78-5.98,0-2.06-.48-3.87-1.44-5.44-.96-1.56-2.3-2.72-4.02-3.48v-.05c1.41-.79,2.46-1.84,3.17-3.14.7-1.31,1.06-2.87,1.06-4.69,0-2.1-.54-3.93-1.62-5.49-1.08-1.56-2.6-2.78-4.56-3.66-1.96-.88-4.24-1.31-6.86-1.31h-15.62v38.66h15.67c2.85,0,5.34-.47,7.47-1.42ZM161.92,51.81c.46.76.7,1.7.7,2.83s-.25,2.01-.75,2.73c-.5.72-1.24,1.26-2.22,1.62-.98.36-2.19.54-3.63.54h-8.61v-10h8.87c1.41,0,2.59.19,3.53.57.95.38,1.65.95,2.11,1.7ZM155.87,34.08c1.86,0,3.26.36,4.2,1.08.94.72,1.42,1.79,1.42,3.2,0,1.07-.21,1.94-.62,2.63-.41.69-1.03,1.21-1.86,1.57s-1.86.54-3.09.54h-8.5v-9.02h8.45Z"/>
    <path fill="#101828" d="M187.73,66.87c2.1,0,3.98-.36,5.64-1.08,1.67-.72,3.05-1.77,4.15-3.14h.05l1.03,3.56h4.95v-27.37h-4.95l-1.03,3.56h-.05c-.69-.93-1.51-1.71-2.47-2.34-.96-.64-2.05-1.11-3.25-1.42-1.2-.31-2.49-.46-3.87-.46-2.58,0-4.91.6-7.01,1.8-2.1,1.2-3.75,2.9-4.95,5.08-1.2,2.18-1.8,4.65-1.8,7.4s.59,5.32,1.78,7.5c1.19,2.18,2.81,3.88,4.87,5.1,2.06,1.22,4.36,1.83,6.91,1.83ZM182.39,48.44c.67-1.19,1.58-2.11,2.73-2.78,1.15-.67,2.45-1,3.89-1s2.73.34,3.87,1c1.13.67,2.02,1.61,2.66,2.81.63,1.2.95,2.56.95,4.07s-.33,2.82-.98,4.02c-.65,1.2-1.56,2.14-2.71,2.81-1.15.67-2.45,1-3.89,1s-2.73-.34-3.87-1.03c-1.13-.69-2.03-1.63-2.68-2.83-.65-1.2-.98-2.56-.98-4.07s.33-2.81,1-3.99Z"/>
    <path fill="#101828" d="M217.6,52.54c0-1.65.25-3.08.75-4.28.5-1.2,1.22-2.12,2.16-2.76.94-.64,2.07-.95,3.38-.95,1.17,0,2.17.27,3.02.8.84.53,1.49,1.31,1.93,2.34.45,1.03.67,2.27.67,3.71v14.79h7.11v-15.26c0-2.68-.46-4.98-1.37-6.91-.91-1.92-2.22-3.39-3.92-4.41-1.7-1.01-3.75-1.52-6.16-1.52-2.03,0-3.76.35-5.21,1.06-1.44.7-2.59,1.78-3.45,3.22h-.05l-1.03-3.56h-4.95v27.37h7.11v-13.66Z"/>
    <path fill="#101828" d="M255.29,66.87c2.1,0,3.97-.36,5.62-1.08,1.65-.72,3.02-1.77,4.12-3.14h.05l1.03,3.56h4.95V27.54h-7.11v11.29l.21,2.47h-.05c-.65-.65-1.44-1.22-2.34-1.7-.91-.48-1.89-.84-2.94-1.08-1.05-.24-2.17-.36-3.38-.36-2.58,0-4.91.6-7.01,1.8-2.1,1.2-3.74,2.9-4.92,5.08-1.19,2.18-1.78,4.65-1.78,7.4s.59,5.32,1.78,7.5c1.19,2.18,2.81,3.88,4.87,5.1,2.06,1.22,4.36,1.83,6.91,1.83ZM249.91,48.41c.64-1.17,1.53-2.09,2.68-2.76,1.15-.67,2.48-1,3.99-1,1.37,0,2.63.34,3.76,1.03,1.13.69,2.03,1.62,2.68,2.81.65,1.19.98,2.52.98,3.99s-.33,2.82-.98,4.02c-.65,1.2-1.55,2.15-2.71,2.83-1.15.69-2.45,1.03-3.89,1.03s-2.78-.34-3.92-1c-1.13-.67-2.01-1.62-2.63-2.83-.62-1.22-.93-2.59-.93-4.1s.32-2.85.95-4.02Z"/>
    <path fill="#101828" d="M283.53,64.91c2.2,1.27,4.66,1.91,7.37,1.91,3.26,0,6.12-.8,8.58-2.4,2.46-1.6,4.08-3.7,4.87-6.31v-.98h-6.86c-.55,1.17-1.39,2.07-2.53,2.71-1.13.64-2.46.95-3.97.95s-2.83-.34-3.97-1c-1.13-.67-2-1.65-2.6-2.94-.29-.63-.51-1.31-.66-2.04h21.31v-2.47c0-2.65-.62-5.05-1.86-7.22-1.24-2.17-2.94-3.86-5.1-5.08-2.16-1.22-4.57-1.83-7.22-1.83s-5.17.61-7.37,1.83c-2.2,1.22-3.93,2.91-5.18,5.08-1.26,2.16-1.88,4.57-1.88,7.22s.63,5.17,1.88,7.37c1.25,2.2,2.98,3.94,5.18,5.21ZM287.01,45.11c1.12-.69,2.41-1.03,3.89-1.03,1.24,0,2.36.26,3.38.77,1.01.52,1.83,1.2,2.45,2.06.62.86,1,1.8,1.13,2.83h-14.03c.15-.62.34-1.21.61-1.75.6-1.24,1.46-2.2,2.58-2.89Z"/>
    <path fill="#101828" d="M336.61,66.2v-15.26c0-2.68-.46-4.98-1.37-6.91-.91-1.92-2.22-3.39-3.92-4.41-1.7-1.01-3.75-1.52-6.16-1.52-2.03,0-3.76.35-5.21,1.06-1.44.7-2.59,1.78-3.45,3.22h-.05l-1.03-3.56h-4.95v27.37h7.11v-13.66c0-1.65.25-3.08.75-4.28.5-1.2,1.22-2.12,2.16-2.76.94-.64,2.07-.95,3.38-.95,1.17,0,2.17.27,3.02.8.84.53,1.49,1.31,1.93,2.34.45,1.03.67,2.27.67,3.71v14.79h7.11Z"/>
    <path fill="#101828" d="M165.43,103.69c-1.91,1.39-4.32,2.09-7.24,2.09-2.41,0-4.55-.57-6.44-1.7-1.89-1.13-3.37-2.73-4.43-4.79-1.07-2.06-1.6-4.4-1.6-7.01s.56-4.78,1.68-6.8c1.12-2.03,2.64-3.6,4.56-4.72,1.92-1.12,4.07-1.67,6.44-1.67,2.68,0,4.94.65,6.78,1.96,1.84,1.31,3.27,3.25,4.3,5.82h7.22v-.98c-1.24-4.33-3.45-7.68-6.65-10.05-3.2-2.37-7.04-3.56-11.55-3.56-3.78,0-7.21.88-10.28,2.63-3.08,1.75-5.5,4.16-7.27,7.22-1.77,3.06-2.65,6.44-2.65,10.15s.87,7.31,2.6,10.39c1.73,3.08,4.12,5.5,7.16,7.27,3.04,1.77,6.45,2.65,10.23,2.65,4.78,0,8.79-1.25,12.04-3.74s5.44-6.01,6.57-10.54v-1.03h-7.32c-.86,2.89-2.24,5.03-4.15,6.42Z"/>
    <path fill="#101828" d="M203.21,85.57c-2.25-1.24-4.79-1.86-7.6-1.86s-5.31.62-7.58,1.86c-2.27,1.24-4.05,2.94-5.33,5.1-1.29,2.16-1.93,4.55-1.93,7.16,0,2.75.63,5.24,1.88,7.47s3.01,3.98,5.26,5.23c2.25,1.25,4.78,1.88,7.6,1.88s5.32-.64,7.6-1.91c2.29-1.27,4.07-3.02,5.36-5.26,1.29-2.23,1.93-4.71,1.93-7.42s-.64-5.04-1.91-7.19c-1.27-2.15-3.03-3.84-5.28-5.08ZM202.23,102.06c-.67,1.2-1.59,2.15-2.76,2.83-1.17.69-2.49,1.03-3.97,1.03s-2.79-.34-3.94-1c-1.15-.67-2.04-1.61-2.68-2.81-.64-1.2-.95-2.58-.95-4.12s.33-2.81.98-3.99c.65-1.19,1.56-2.11,2.73-2.78,1.17-.67,2.49-1.01,3.97-1.01s2.79.34,3.94,1.01c1.15.67,2.05,1.6,2.71,2.78.65,1.19.98,2.52.98,3.99s-.34,2.87-1,4.07Z"/>
    <path fill="#101828" d="M236.53,85.18c-1.7-1.01-3.75-1.52-6.16-1.52-2.03,0-3.76.35-5.21,1.06-1.44.7-2.59,1.78-3.45,3.22h-.05l-1.03-3.56h-4.95v27.37h7.11v-13.66c0-1.65.25-3.08.75-4.28.5-1.2,1.22-2.12,2.16-2.76.95-.64,2.07-.95,3.38-.95,1.17,0,2.17.27,3.02.8.84.53,1.49,1.31,1.93,2.34.45,1.03.67,2.27.67,3.71v14.79h7.11v-15.26c0-2.68-.46-4.98-1.37-6.91-.91-1.92-2.22-3.39-3.92-4.41Z"/>
    <path fill="#101828" d="M265.54,104.54c-1.19.89-2.57,1.34-4.15,1.34-1.41,0-2.68-.34-3.81-1.03-1.13-.69-2.02-1.63-2.65-2.83-.64-1.2-.95-2.58-.95-4.12,0-1.44.31-2.76.93-3.94.62-1.19,1.49-2.1,2.6-2.76,1.12-.65,2.38-.98,3.79-.98,1.61,0,2.99.4,4.12,1.21s1.92,1.92,2.37,3.32h7.16v-.98c-.55-1.96-1.47-3.69-2.76-5.21-1.29-1.51-2.88-2.69-4.77-3.53-1.89-.84-3.95-1.26-6.18-1.26-2.68,0-5.13.62-7.35,1.86-2.22,1.24-3.95,2.93-5.21,5.08-1.26,2.15-1.88,4.54-1.88,7.19s.63,5.17,1.88,7.37c1.25,2.2,2.99,3.93,5.21,5.21,2.22,1.27,4.68,1.91,7.4,1.91,3.26,0,6.15-.96,8.66-2.89,2.51-1.92,4.21-4.43,5.1-7.53v-.98h-7.11c-.41,1.48-1.21,2.66-2.4,3.56Z"/>
    <path fill="#101828" d="M298.78,98.04c0,1.65-.25,3.08-.75,4.28-.5,1.2-1.22,2.12-2.17,2.76-.94.64-2.07.95-3.38.95-1.17,0-2.17-.27-3.02-.8-.84-.53-1.49-1.31-1.93-2.35-.45-1.03-.67-2.27-.67-3.71v-14.79h-7.11v15.26c0,2.68.45,4.98,1.37,6.91.91,1.92,2.22,3.39,3.92,4.41,1.7,1.01,3.75,1.52,6.16,1.52,2.03,0,3.76-.35,5.21-1.06,1.44-.7,2.59-1.78,3.45-3.22h.05l1.03,3.56h4.95v-27.37h-7.11v13.66Z"/>
    <path fill="#101828" d="M325.77,83.71c-1.51,0-2.87.38-4.07,1.13-1.2.76-2.16,1.84-2.89,3.25h-.05l-.98-3.71h-4.95v27.37h7.11v-12.78c0-2.54.46-4.58,1.39-6.11.93-1.53,2.2-2.29,3.81-2.29.48,0,.92.06,1.31.18.4.12.71.27.95.44h1.8v-6.86c-.34-.17-.82-.32-1.42-.44-.6-.12-1.28-.18-2.04-.18Z"/>
    <path fill="#101828" d="M346.06,83.71c-1.51,0-2.87.38-4.07,1.13-1.2.76-2.16,1.84-2.89,3.25h-.05l-.98-3.71h-4.95v27.37h7.11v-12.78c0-2.54.46-4.58,1.39-6.11.93-1.53,2.2-2.29,3.81-2.29.48,0,.92.06,1.31.18.4.12.71.27.95.44h1.8v-6.86c-.34-.17-.82-.32-1.42-.44-.6-.12-1.28-.18-2.04-.18Z"/>
    <path fill="#101828" d="M373.71,85.59c-2.16-1.22-4.57-1.83-7.22-1.83s-5.17.61-7.37,1.83c-2.2,1.22-3.93,2.91-5.18,5.08-1.26,2.16-1.88,4.57-1.88,7.22s.63,5.17,1.88,7.37c1.25,2.2,2.98,3.93,5.18,5.21,2.2,1.27,4.66,1.91,7.37,1.91,3.26,0,6.12-.8,8.58-2.4,2.46-1.6,4.08-3.7,4.87-6.31v-.98h-6.86c-.55,1.17-1.39,2.07-2.53,2.71-1.13.64-2.46.95-3.97.95s-2.83-.33-3.97-1c-1.13-.67-2-1.65-2.6-2.94-.29-.63-.51-1.31-.66-2.04h21.31v-2.47c0-2.65-.62-5.05-1.86-7.22-1.24-2.17-2.94-3.86-5.1-5.08ZM359.42,95.31c.15-.62.34-1.21.61-1.75.6-1.24,1.46-2.2,2.58-2.89s2.41-1.03,3.89-1.03c1.24,0,2.36.26,3.38.77,1.01.52,1.83,1.2,2.45,2.06.62.86,1,1.8,1.13,2.83h-14.03Z"/>
    <path fill="#101828" d="M406.92,85.18c-1.7-1.01-3.75-1.52-6.16-1.52-2.03,0-3.76.35-5.21,1.06-1.44.7-2.59,1.78-3.45,3.22h-.05l-1.03-3.56h-4.95v27.37h7.11v-13.66c0-1.65.25-3.08.75-4.28.5-1.2,1.22-2.12,2.16-2.76.94-.64,2.07-.95,3.38-.95,1.17,0,2.17.27,3.02.8.84.53,1.49,1.31,1.93,2.34.45,1.03.67,2.27.67,3.71v14.79h7.11v-15.26c0-2.68-.46-4.98-1.37-6.91-.91-1.92-2.22-3.39-3.92-4.41Z"/>
    <path fill="#101828" d="M437.87,90.72v-6.34h-9.48v-8.14h-3.61l-9.02,12.68v1.8h5.46v11.75c0,3.33.82,5.83,2.45,7.5,1.63,1.67,4.1,2.5,7.4,2.5,1.48,0,2.8-.17,3.97-.52,1.17-.34,2.11-.76,2.83-1.24v-6.44h-1.8c-.45.45-1,.82-1.68,1.11-.67.29-1.4.44-2.19.44-1.41,0-2.4-.34-2.96-1.03-.57-.69-.85-1.87-.85-3.56v-10.52h9.48Z"/>
  </g>
  <rect fill="#fded5b" x="27.54" y="27.54" width="85.04" height="85.04" rx="14.17" ry="14.17"/>
  <g>
    <circle fill="#101828" cx="86.59" cy="64.67" r="6.21"/>
    <rect fill="#101828" x="42.5" y="41.7" width="55.9" height="8.22"/>
    <path fill="#101828" d="M70.45,98.41c-9.12,0-16.53-7.42-16.53-16.53h8.22c0,4.58,3.73,8.31,8.31,8.31s8.31-3.73,8.31-8.31h8.22c0,9.12-7.42,16.53-16.53,16.53Z"/>
    <path fill="#101828" d="M58.24,74.77c-9.12,0-16.53-7.42-16.53-16.53s7.42-16.53,16.53-16.53,16.53,7.42,16.53,16.53-7.42,16.53-16.53,16.53ZM58.24,49.92c-4.58,0-8.31,3.73-8.31,8.31s3.73,8.31,8.31,8.31,8.31-3.73,8.31-8.31-3.73-8.31-8.31-8.31Z"/>
  </g>
</svg>